G04 MADE WITH FRITZING*
G04 WWW.FRITZING.ORG*
G04 DOUBLE SIDED*
G04 HOLES PLATED*
G04 CONTOUR ON CENTER OF CONTOUR VECTOR*
%ASAXBY*%
%FSLAX23Y23*%
%MOIN*%
%OFA0B0*%
%SFA1.0B1.0*%
%ADD10C,0.064000*%
%ADD11C,0.070925*%
%ADD12C,0.070866*%
%ADD13C,0.078000*%
%ADD14C,0.074000*%
%ADD15C,0.075000*%
%ADD16R,0.078000X0.078000*%
%ADD17R,0.075000X0.075000*%
%ADD18C,0.012000*%
%LNCOPPER0*%
G90*
G70*
G54D10*
X129Y1552D03*
X229Y1552D03*
X329Y1552D03*
X429Y1552D03*
X529Y1552D03*
X629Y1552D03*
G54D11*
X529Y152D03*
G54D12*
X529Y345D03*
G54D13*
X1029Y252D03*
X929Y252D03*
X829Y252D03*
G54D14*
X1829Y252D03*
X1729Y252D03*
X1629Y252D03*
X1529Y252D03*
X1429Y252D03*
X1329Y252D03*
G54D15*
X829Y1752D03*
X1129Y1752D03*
X829Y1652D03*
X1129Y1652D03*
X829Y1552D03*
X1129Y1552D03*
X829Y1452D03*
X1129Y1452D03*
X829Y1352D03*
X1129Y1352D03*
X829Y1252D03*
X1129Y1252D03*
X829Y1152D03*
X1129Y1152D03*
X829Y1052D03*
X1129Y1052D03*
X829Y952D03*
X1129Y952D03*
X829Y852D03*
X1129Y852D03*
X829Y752D03*
X1129Y752D03*
X829Y652D03*
X1129Y652D03*
X829Y552D03*
X1129Y552D03*
X829Y452D03*
X1129Y452D03*
G54D16*
X1029Y252D03*
G54D17*
X829Y1752D03*
G54D18*
X330Y1652D02*
X247Y1570D01*
D02*
X730Y1652D02*
X330Y1652D01*
D02*
X813Y1569D02*
X730Y1652D01*
D02*
X931Y452D02*
X828Y354D01*
D02*
X828Y354D02*
X731Y354D01*
D02*
X927Y953D02*
X931Y452D01*
D02*
X731Y354D02*
X630Y454D01*
D02*
X1113Y1136D02*
X927Y953D01*
D02*
X630Y454D02*
X629Y1527D01*
D02*
X1030Y754D02*
X1113Y836D01*
D02*
X1030Y653D02*
X1030Y754D01*
D02*
X1030Y454D02*
X1030Y653D01*
D02*
X929Y352D02*
X1030Y454D01*
D02*
X846Y270D02*
X929Y352D01*
D02*
X1429Y51D02*
X1611Y234D01*
D02*
X1128Y51D02*
X1429Y51D01*
D02*
X1040Y230D02*
X1128Y51D01*
D02*
X931Y1752D02*
X1028Y1952D01*
D02*
X931Y1652D02*
X931Y1752D01*
D02*
X845Y1569D02*
X931Y1652D01*
D02*
X1028Y1952D02*
X1428Y1952D01*
D02*
X1428Y1952D02*
X1530Y1754D01*
D02*
X1530Y1754D02*
X1529Y278D01*
G04 End of Copper0*
M02*