; NON-PLATED HOLES START AT T1
; THROUGH (PLATED) HOLES START AT T100
M48
INCH
T100C0.031496
T101C0.038000
T102C0.035000
T103C0.040000
T104C0.031555
%
T100
X005288Y003454
T101
X008288Y002523
X010288Y002523
X009288Y002523
T102
X011288Y004523
X011288Y009523
X008288Y006523
X011288Y015524
X008288Y007523
X011288Y008523
X011288Y005523
X008288Y009523
X011288Y017524
X011288Y007523
X011288Y011524
X008288Y013524
X008288Y015524
X008288Y010524
X008288Y004523
X011288Y010524
X008288Y017524
X008288Y005523
X008288Y011524
X011288Y012524
X011288Y016524
X011288Y006523
X008288Y012524
X011288Y013524
X008288Y014524
X008288Y008523
X008288Y016524
X011288Y014524
T103
X002288Y015524
X001288Y015524
X003288Y015524
X016288Y002523
X014288Y002523
X005288Y015524
X013288Y002523
X017288Y002523
X004288Y015524
X018288Y002523
X006288Y015524
X015288Y002523
T104
X005288Y001523
T00
M30
